<?xml version="1.0" standalone="no"?>
<!DOCTYPE svg PUBLIC "-//W3C//DTD SVG 20010904//EN"
 "http://www.w3.org/TR/2001/REC-SVG-20010904/DTD/svg10.dtd">
<svg version="1.0" xmlns="http://www.w3.org/2000/svg"
 width="512.000000pt" height="512.000000pt" viewBox="0 0 512.000000 512.000000"
 preserveAspectRatio="xMidYMid meet">
<metadata>
Created by potrace 1.14, written by Peter Selinger 2001-2017
</metadata>
<g transform="translate(0.000000,512.000000) scale(0.100000,-0.100000)"
fill="#000000" stroke="none">
<path d="M2744 4863 c5 -9 -1 -13 -17 -13 -41 0 -87 -12 -81 -21 3 -5 -4 -9
-15 -9 -12 0 -40 -18 -62 -40 -23 -22 -38 -40 -34 -40 3 0 0 -7 -9 -15 -8 -9
-12 -23 -9 -32 4 -11 2 -14 -5 -9 -7 4 -10 -1 -7 -14 2 -11 -1 -22 -6 -26 -6
-4 -6 -10 1 -19 8 -9 8 -15 0 -20 -6 -4 -7 -13 -1 -23 4 -9 6 -23 3 -31 -3 -9
0 -11 7 -6 8 4 11 2 10 -6 -4 -23 12 -69 22 -63 5 3 9 -1 9 -8 0 -8 9 -20 19
-28 11 -7 17 -18 14 -23 -3 -6 -1 -7 5 -3 6 4 21 -3 32 -14 12 -12 28 -19 36
-16 8 3 14 -1 14 -8 0 -10 12 -14 40 -12 22 0 40 -2 40 -6 0 -4 12 -4 28 -1
15 3 33 6 40 6 6 0 12 4 12 9 0 5 3 7 8 5 10 -7 93 39 85 47 -3 3 1 6 10 6 9
0 19 5 23 12 5 7 3 8 -7 3 -12 -8 -12 -6 0 8 7 9 18 14 24 10 6 -3 7 -1 3 5
-4 7 -2 12 4 12 7 0 10 6 7 14 -3 8 -1 16 5 18 22 8 28 166 6 179 -7 5 -9 9
-4 9 5 0 4 6 -2 13 -6 6 -12 17 -14 22 -1 6 -7 9 -11 7 -5 -1 -6 1 -3 6 6 11
-39 64 -48 55 -3 -3 -6 -1 -6 5 0 6 -13 13 -30 17 -16 4 -30 11 -30 16 0 5
-14 9 -31 9 -19 0 -28 4 -23 11 5 8 1 8 -13 0 -14 -7 -24 -7 -33 2 -10 9 -11
9 -6 0z"/>
<path d="M2010 4843 c0 -6 -16 -9 -35 -8 -19 2 -35 -1 -35 -6 0 -5 -9 -9 -20
-9 -25 0 -93 -68 -86 -86 3 -8 2 -14 -3 -14 -4 0 -8 -6 -9 -12 0 -7 -2 -30 -4
-51 -3 -21 -1 -40 4 -43 4 -3 8 -13 8 -23 0 -17 71 -100 87 -102 4 0 17 -3 28
-6 35 -8 100 -10 110 -2 6 4 19 9 30 11 25 4 67 47 58 61 -3 5 -2 7 4 4 6 -4
17 11 26 33 10 26 11 38 4 33 -9 -5 -9 -3 0 8 13 17 14 59 0 59 -4 0 -6 4 -3
9 7 11 -13 71 -24 71 -5 0 -12 9 -15 20 -4 13 -18 23 -36 27 -16 3 -29 9 -29
13 0 5 -8 7 -17 5 -10 -1 -24 2 -30 8 -8 6 -13 6 -13 0z"/>
<path d="M1447 4583 c-4 -3 -19 -6 -34 -7 -36 -1 -123 -52 -123 -71 0 -8 -4
-15 -9 -15 -5 0 -12 -14 -16 -30 -4 -19 -11 -28 -18 -23 -7 4 -6 -1 2 -10 7
-9 9 -17 4 -17 -5 0 -10 -7 -10 -15 0 -8 4 -12 9 -9 4 3 8 0 8 -5 0 -6 -5 -11
-11 -11 -8 0 -9 -4 0 -13 6 -8 8 -17 4 -20 -3 -4 -1 -7 6 -7 7 0 9 -4 6 -10
-3 -5 -1 -10 5 -10 6 0 8 -4 5 -10 -3 -5 -1 -10 4 -10 6 0 11 -9 11 -21 0 -11
5 -17 10 -14 6 3 13 -1 16 -9 3 -9 12 -16 19 -16 7 0 15 -4 17 -9 3 -10 61
-25 88 -23 108 8 177 77 185 185 2 27 0 58 -6 70 -17 37 -39 73 -39 63 0 -5
-8 0 -17 10 -10 11 -36 28 -58 38 -22 10 -43 20 -46 22 -3 2 -9 1 -12 -3z"/>
<path d="M3516 4533 c-3 -4 -21 -8 -39 -9 -17 -1 -32 -3 -32 -4 0 -1 -12 -3
-27 -4 -15 -2 -35 -9 -45 -17 -11 -10 -14 -10 -9 -1 4 7 -6 5 -26 -6 -18 -10
-41 -18 -51 -16 -9 1 -17 -2 -17 -6 0 -5 -13 -11 -30 -15 -16 -4 -30 -11 -30
-16 0 -5 -6 -9 -14 -9 -8 0 -22 -10 -30 -22 -9 -12 -16 -19 -16 -15 0 4 -10 2
-22 -5 -13 -7 -27 -11 -31 -10 -5 1 -6 -2 -2 -8 3 -5 -1 -10 -9 -10 -9 0 -16
-4 -16 -8 0 -5 14 -9 30 -9 17 0 30 3 30 7 0 6 37 11 93 14 15 0 27 3 27 6 0
5 87 10 230 13 41 1 80 5 87 10 7 4 16 0 22 -10 6 -10 11 -12 11 -5 0 14 21
12 32 -3 5 -6 8 -5 8 2 0 7 6 10 13 8 6 -2 35 -6 62 -9 56 -6 84 -10 135 -21
19 -4 43 -8 52 -9 10 -1 21 -5 24 -9 12 -11 64 -8 64 4 0 6 -7 8 -16 5 -8 -3
-12 -2 -9 4 3 6 -1 10 -10 10 -9 0 -14 4 -10 9 3 5 -4 12 -15 16 -11 3 -20 11
-20 16 0 5 -10 9 -22 9 -19 0 -20 2 -8 10 11 7 12 10 2 10 -8 0 -27 9 -43 21
-16 11 -29 17 -29 14 0 -4 -10 -1 -22 7 -13 8 -36 19 -53 23 -16 5 -33 9 -37
10 -5 2 -17 3 -29 4 -11 0 -17 5 -14 11 4 6 -2 7 -17 1 -13 -5 -31 -5 -39 -1
-8 5 -24 7 -35 6 -10 -2 -24 0 -30 5 -6 5 -14 6 -18 2z"/>
<path d="M2280 4452 c0 -7 -4 -11 -9 -7 -5 3 -15 -1 -23 -8 -7 -8 -19 -12 -27
-9 -8 3 -11 0 -7 -7 4 -7 -1 -11 -13 -11 -11 0 -23 -5 -26 -10 -4 -6 -11 -8
-16 -5 -5 4 -9 2 -9 -3 0 -8 -65 -45 -82 -46 -4 -1 -16 -9 -27 -18 -14 -12
-21 -13 -25 -5 -3 9 -5 9 -5 0 -1 -7 -7 -13 -15 -13 -8 0 -16 -7 -20 -15 -3
-8 -17 -15 -31 -15 -15 0 -24 -4 -21 -9 7 -11 -22 -23 -36 -14 -6 3 -8 1 -4
-5 3 -6 -3 -13 -14 -17 -11 -3 -20 -10 -20 -15 0 -5 -14 -12 -31 -15 -23 -5
-28 -9 -18 -16 11 -7 10 -9 -3 -9 -10 0 -18 -5 -18 -10 0 -6 -3 -9 -7 -8 -13
3 -63 -24 -63 -34 0 -4 -9 -8 -20 -8 -11 0 -20 -4 -20 -10 0 -5 -7 -10 -16
-10 -8 0 -12 -4 -9 -10 3 -5 1 -10 -4 -10 -6 0 -13 0 -16 0 -3 0 -13 -8 -24
-17 -48 -46 -90 -81 -93 -78 -6 5 -76 -74 -70 -80 3 -3 0 -5 -7 -5 -14 0 -77
-62 -73 -72 1 -5 -1 -7 -6 -5 -9 3 -98 -86 -95 -95 2 -5 -4 -8 -12 -8 -8 0
-15 -6 -15 -13 0 -7 -9 -19 -20 -27 -11 -8 -20 -20 -20 -26 0 -7 -7 -14 -15
-18 -8 -3 -15 -15 -15 -26 0 -13 -4 -18 -11 -15 -6 4 -13 -2 -16 -14 -3 -12
-10 -21 -16 -21 -6 0 -8 -3 -4 -6 6 -6 -40 -87 -75 -133 -10 -13 -15 -27 -12
-32 3 -5 1 -9 -3 -9 -9 0 -43 -73 -43 -94 0 -7 -7 -19 -15 -26 -9 -7 -13 -15
-10 -18 3 -3 0 -11 -6 -19 -6 -7 -8 -13 -4 -13 4 0 2 -7 -5 -15 -7 -8 -9 -15
-5 -15 4 0 0 -12 -10 -26 -11 -18 -12 -24 -4 -18 12 6 12 5 0 -9 -7 -9 -10
-17 -6 -17 4 0 2 -7 -5 -15 -7 -8 -10 -15 -7 -15 5 0 -1 -28 -18 -75 -6 -16
-5 -17 4 -5 6 8 11 10 11 4 0 -6 -3 -14 -7 -18 -4 -4 -9 -19 -11 -34 -2 -15
-8 -30 -14 -33 -7 -4 -6 -8 1 -10 9 -3 9 -12 2 -30 -7 -19 -6 -30 2 -38 8 -8
8 -11 -2 -11 -7 0 -9 -5 -4 -12 12 -20 12 -39 1 -32 -7 4 -7 -2 -2 -17 5 -13
8 -41 9 -62 0 -20 3 -37 7 -37 3 0 5 -13 4 -29 -1 -17 2 -27 7 -24 6 3 8 -7 5
-25 -3 -19 0 -30 6 -29 6 1 10 -4 8 -12 -2 -8 3 -18 10 -22 11 -7 11 -9 0 -9
-10 0 -9 -4 2 -16 9 -8 14 -20 11 -25 -4 -5 -1 -9 5 -9 6 0 9 -4 6 -9 -3 -5 2
-19 12 -32 10 -13 22 -31 25 -39 8 -18 28 -50 42 -66 6 -7 26 -31 45 -54 46
-57 91 -100 102 -100 5 0 6 -5 2 -12 -4 -6 -3 -8 3 -5 6 4 16 0 23 -8 7 -8 16
-13 20 -10 4 3 10 -4 13 -15 3 -13 10 -18 21 -14 9 3 16 1 16 -5 0 -6 7 -8 17
-4 11 5 14 3 8 -6 -6 -10 -2 -11 15 -6 17 6 21 4 14 -6 -6 -10 -3 -10 11 1 11
9 16 10 11 3 -5 -9 1 -13 19 -13 14 0 24 -4 21 -8 -3 -5 1 -9 9 -9 8 0 11 5 8
11 -4 6 2 4 13 -5 31 -26 54 -31 54 -12 0 9 -3 14 -6 10 -7 -7 -54 41 -54 55
0 5 -5 6 -10 3 -6 -3 -10 3 -10 14 0 12 -5 21 -12 21 -6 0 -9 3 -5 6 3 4 -1
13 -9 21 -8 8 -11 19 -8 25 4 6 3 8 -3 5 -10 -6 -43 53 -43 78 0 8 -4 15 -10
15 -5 0 -10 9 -10 20 0 11 -5 20 -11 20 -6 0 -9 6 -7 12 3 7 -1 24 -8 37 -7
14 -11 28 -8 33 3 4 1 8 -4 8 -5 0 -9 7 -10 15 -1 8 -3 22 -4 30 -1 8 -4 15
-8 15 -3 0 -5 14 -4 30 1 17 -2 30 -6 30 -5 0 -9 8 -8 18 0 9 -1 73 -1 142 -1
120 3 172 16 193 4 6 1 7 -7 2 -9 -5 -11 -4 -6 4 4 6 9 24 12 39 3 15 7 34 11
42 3 8 7 26 8 40 1 14 7 35 14 48 6 12 9 22 5 22 -3 0 -1 7 6 15 6 8 9 19 5
25 -3 5 -1 10 4 10 6 0 11 12 11 26 0 14 4 23 10 19 6 -3 10 3 10 14 0 11 4
22 10 26 5 3 6 13 3 22 -4 11 -3 14 5 9 8 -5 12 0 12 13 0 12 5 21 11 21 5 0
7 5 4 10 -3 6 1 13 9 16 9 3 13 10 10 15 -3 5 0 9 5 9 6 0 11 5 11 10 0 6 17
37 37 68 21 31 43 69 50 85 7 15 18 27 24 27 7 0 10 3 7 6 -4 3 1 14 10 24 10
10 28 31 40 46 35 43 132 144 132 138 0 -3 23 17 50 45 28 28 50 49 50 46 0
-2 16 12 36 31 20 18 41 31 47 27 5 -3 7 -2 4 4 -3 5 14 20 39 33 24 14 44 28
44 31 0 4 14 12 30 19 17 7 30 17 30 23 0 6 3 7 6 4 4 -4 19 2 34 13 16 11 33
20 39 20 6 0 11 5 11 10 0 6 5 10 12 10 6 0 19 7 29 16 9 8 23 17 31 18 13 3
34 11 126 52 29 13 59 24 68 24 8 0 13 4 10 9 -3 5 8 11 24 15 28 5 43 26 20
26 -5 0 -10 9 -10 20 0 11 -3 20 -8 20 -4 0 -16 17 -27 38 -11 20 -24 40 -30
44 -5 4 -10 12 -10 18 0 6 -5 14 -10 18 -6 4 -21 23 -33 42 -12 19 -22 29 -22
22z"/>
<path d="M3507 4204 c-3 -3 -49 -6 -104 -7 -54 -1 -104 -6 -112 -11 -9 -6 -12
-5 -8 1 3 5 0 10 -8 10 -8 0 -12 -3 -10 -7 2 -3 -19 -7 -47 -8 -29 -1 -55 -7
-60 -14 -6 -10 -8 -10 -8 2 0 9 -3 11 -8 5 -4 -6 -17 -10 -29 -9 -13 1 -23 -3
-23 -9 0 -5 -7 -4 -15 3 -10 9 -15 9 -15 1 0 -6 -15 -11 -33 -11 -18 0 -39 -6
-46 -12 -11 -11 -12 -10 -6 2 8 13 6 13 -8 1 -9 -7 -26 -11 -37 -8 -11 3 -20
2 -20 -2 0 -8 -9 -10 -55 -13 -14 -1 -25 -6 -25 -11 0 -4 -4 -6 -9 -2 -5 3
-12 1 -16 -4 -3 -6 -12 -8 -20 -4 -8 3 -15 1 -15 -5 0 -5 -7 -13 -16 -16 -9
-4 -13 -2 -8 5 5 8 1 8 -13 0 -11 -6 -23 -7 -27 -4 -3 3 -6 0 -6 -7 0 -7 -3
-11 -6 -7 -3 3 -25 -3 -49 -13 -24 -10 -46 -16 -49 -13 -3 4 -6 1 -6 -5 0 -7
-3 -11 -7 -10 -14 4 -113 -36 -113 -45 0 -4 -4 -6 -9 -2 -5 3 -12 1 -16 -5 -4
-6 -11 -8 -16 -5 -5 4 -9 2 -9 -4 0 -9 -30 -23 -40 -18 -3 1 -18 -7 -35 -19
-27 -19 -58 -33 -70 -34 -6 0 -23 -13 -54 -41 -9 -8 -23 -13 -29 -11 -7 2 -12
-1 -12 -7 0 -6 -6 -11 -14 -11 -8 0 -17 -7 -20 -16 -3 -8 -10 -13 -15 -9 -6 3
-14 -3 -20 -12 -6 -10 -11 -14 -11 -9 0 5 -12 -1 -26 -15 -14 -13 -29 -24 -32
-24 -4 0 -6 -3 -5 -7 2 -4 -8 -10 -22 -14 -14 -3 -22 -10 -19 -15 5 -8 -9 -13
-28 -10 -4 0 -10 -8 -13 -19 -3 -10 -15 -22 -26 -25 -10 -4 -17 -11 -14 -16 4
-5 2 -9 -3 -9 -9 0 -82 -67 -82 -75 0 -11 -39 -43 -45 -37 -3 4 -3 -1 1 -11 3
-10 1 -17 -6 -17 -6 0 -8 -4 -5 -10 3 -5 1 -10 -5 -10 -6 0 -18 -7 -26 -15 -9
-8 -13 -15 -10 -15 3 0 -8 -13 -25 -29 -17 -16 -30 -32 -30 -35 1 -15 -12 -35
-20 -30 -5 3 -9 -4 -9 -15 0 -12 -4 -21 -10 -21 -5 0 -10 -7 -10 -15 0 -9 -7
-18 -15 -21 -8 -4 -15 -12 -15 -20 0 -8 -5 -14 -11 -14 -5 0 -7 -5 -4 -10 3
-6 -1 -13 -9 -16 -9 -3 -14 -10 -11 -14 7 -11 -15 -60 -27 -60 -4 0 -8 -7 -8
-15 0 -8 -5 -15 -11 -15 -5 0 -7 -5 -4 -11 4 -5 -1 -26 -10 -46 -10 -19 -19
-43 -20 -52 -2 -9 -4 -16 -5 -16 -1 0 -4 -13 -6 -30 -8 -50 -12 -70 -15 -70
-5 0 -6 -301 0 -310 3 -5 6 -23 7 -40 1 -16 6 -31 13 -33 6 -2 11 -8 11 -13 0
-6 -6 -7 -12 -3 -8 5 -7 0 2 -10 8 -10 15 -26 15 -35 0 -8 8 -17 19 -19 11 -3
16 0 12 7 -18 29 -31 277 -15 287 5 3 9 11 9 17 0 7 -4 6 -10 -3 -7 -12 -9
-10 -7 7 0 12 5 19 9 17 8 -5 10 7 11 54 0 12 4 22 8 22 5 0 8 3 8 8 -1 4 -1
9 1 12 1 3 4 16 6 30 2 13 11 35 19 47 9 13 13 23 10 23 -3 0 1 13 10 30 8 16
15 32 15 35 0 3 6 13 15 21 8 9 15 22 15 30 0 8 5 14 10 14 6 0 10 5 10 10 0
10 11 24 60 78 15 17 25 34 22 37 -3 3 -1 5 5 5 6 0 13 9 16 21 3 12 10 18 15
15 10 -6 27 21 24 37 -1 4 2 7 7 7 12 0 81 67 81 79 0 6 7 7 17 4 10 -4 14 -2
9 5 -3 6 2 16 13 21 11 6 26 17 33 25 8 7 42 28 76 46 34 18 62 36 62 41 0 5
7 9 15 9 8 0 15 5 15 11 0 5 5 7 10 4 6 -3 10 -1 10 4 0 6 5 11 11 11 6 0 25
11 43 25 18 14 36 22 39 18 4 -3 7 -1 7 6 0 7 4 9 10 6 5 -3 10 -1 10 4 0 6 3
10 8 9 13 -3 92 39 85 45 -3 4 5 7 19 7 14 0 31 7 38 15 7 8 23 15 36 15 13 0
24 5 24 11 0 6 9 9 19 6 15 -3 18 -1 14 11 -4 10 -2 13 5 8 6 -4 24 0 40 8 16
8 32 12 36 9 3 -4 6 0 6 7 0 7 3 10 7 7 3 -4 12 -2 19 4 7 5 28 11 47 12 19 1
33 5 30 10 -2 4 7 7 21 7 14 0 27 4 30 9 4 5 17 8 31 6 14 -1 25 1 25 5 0 4
15 10 33 14 34 6 62 13 62 16 0 3 41 10 71 13 18 1 30 5 27 10 -2 4 6 7 19 8
13 0 37 3 53 5 17 3 40 6 52 7 12 2 25 6 29 10 12 12 26 8 18 -5 -4 -7 2 -5
13 5 11 9 23 14 27 10 4 -4 11 -1 16 7 7 10 10 11 10 3 0 -7 7 -13 16 -13 8 0
13 4 10 8 -3 5 1 9 9 9 8 0 12 -4 9 -9 -3 -4 5 -4 18 1 13 5 60 10 103 10 44
1 112 3 150 5 39 1 73 1 78 -2 4 -2 44 -5 90 -7 74 -3 97 -6 177 -20 48 -8 59
-11 66 -18 4 -4 14 -1 22 6 13 9 14 9 8 0 -7 -12 16 -18 52 -14 6 1 12 -3 12
-9 0 -5 10 -10 23 -10 13 0 28 -5 35 -12 7 -7 12 -8 12 -4 0 5 7 3 15 -4 8 -7
15 -9 15 -5 0 4 7 2 15 -5 8 -7 15 -9 15 -6 0 4 7 0 16 -8 8 -9 24 -16 35 -16
10 0 19 -5 19 -11 0 -5 4 -8 9 -5 5 3 25 -6 46 -19 20 -14 34 -21 30 -15 -3 5
9 0 28 -13 19 -12 32 -26 29 -31 -3 -5 0 -6 6 -2 6 3 18 -1 26 -10 9 -8 16
-13 16 -10 0 6 44 -30 86 -71 18 -17 35 -28 39 -25 4 4 5 1 3 -7 -2 -8 8 -20
22 -28 14 -7 19 -13 12 -13 -7 0 -10 -5 -6 -11 10 -18 24 11 13 30 -4 9 -17
37 -29 63 -11 26 -25 50 -30 53 -6 4 -8 11 -5 16 4 5 2 9 -3 9 -6 0 -15 13
-20 30 -6 16 -20 37 -31 47 -12 9 -21 23 -21 31 0 7 -3 11 -7 9 -5 -3 -14 1
-21 9 -7 8 -11 14 -8 14 2 0 -18 24 -46 53 -27 28 -55 51 -61 49 -7 -2 -9 -1
-5 3 8 8 -2 18 -53 57 -20 15 -39 24 -43 21 -3 -3 -8 2 -12 11 -3 9 -10 13
-15 10 -5 -3 -9 0 -9 5 0 6 -7 11 -16 11 -9 0 -12 5 -8 11 4 7 1 10 -7 7 -8
-3 -27 4 -42 15 -16 10 -31 16 -34 13 -4 -3 -15 1 -25 11 -10 9 -18 13 -18 8
0 -4 -6 -3 -12 2 -7 6 -20 11 -28 11 -8 0 -26 4 -40 7 -14 4 -40 9 -57 12 -18
3 -33 9 -33 13 0 5 -11 7 -25 5 -14 -1 -28 1 -30 5 -3 4 -15 8 -27 8 -33 2
-56 7 -64 15 -4 4 -13 2 -21 -4 -10 -9 -13 -8 -13 2 0 11 -2 11 -10 -1 -8 -12
-10 -12 -10 -1 0 11 -3 11 -17 0 -9 -8 -14 -9 -10 -2 5 8 -6 11 -40 9 -27 -2
-58 0 -69 5 -12 4 -24 5 -27 3z"/>
<path d="M948 4188 c-2 -4 -18 -8 -35 -10 -18 -1 -33 -6 -33 -11 0 -4 -4 -5
-10 -2 -5 3 -10 1 -10 -4 0 -6 -7 -11 -15 -11 -8 0 -15 -4 -15 -10 0 -5 -5
-10 -11 -10 -11 0 -44 -30 -44 -40 0 -4 -7 -13 -15 -22 -8 -8 -24 -27 -35 -43
-11 -15 -28 -35 -37 -44 -10 -8 -18 -19 -18 -24 0 -5 -6 -15 -12 -22 -27 -30
-38 -44 -38 -50 0 -7 -17 -29 -50 -63 -14 -14 -18 -21 -10 -17 13 8 13 7 0
-11 -8 -10 -21 -25 -27 -32 -7 -7 -13 -20 -13 -28 0 -8 -4 -13 -8 -10 -9 5
-57 -92 -54 -106 1 -5 -2 -8 -8 -8 -5 0 -10 -9 -10 -20 0 -11 -4 -20 -10 -20
-5 0 -10 -12 -10 -26 0 -16 -4 -23 -12 -18 -7 4 -8 3 -4 -4 4 -6 2 -19 -3 -29
-21 -41 -45 -98 -43 -105 1 -5 -2 -8 -6 -8 -7 0 -11 -16 -14 -57 -1 -7 -5 -13
-10 -13 -5 0 -8 -6 -6 -12 3 -21 -13 -59 -23 -53 -5 4 -5 -5 1 -20 7 -19 7
-24 -2 -19 -8 5 -9 0 -6 -14 4 -15 0 -25 -10 -32 -10 -5 -12 -10 -6 -10 6 0
11 -7 11 -15 0 -8 -5 -11 -10 -8 -6 4 -8 -3 -5 -15 4 -12 3 -22 -1 -22 -3 0
-7 -14 -7 -31 -1 -17 -7 -35 -14 -39 -9 -6 -9 -9 1 -13 12 -5 12 -7 0 -15 -9
-7 -10 -11 -2 -17 9 -5 9 -10 0 -21 -6 -8 -8 -14 -5 -14 4 0 2 -8 -3 -18 -7
-13 -6 -23 1 -30 7 -7 8 -12 2 -12 -5 0 -9 -17 -9 -37 1 -21 -2 -48 -7 -60 -4
-12 -3 -25 1 -28 5 -3 6 -20 2 -38 -5 -18 -5 -41 -1 -52 4 -11 2 -26 -4 -34
-8 -11 -8 -13 1 -8 8 5 11 -5 9 -33 -2 -22 1 -40 5 -40 4 0 6 -9 4 -20 -2 -11
0 -20 4 -20 5 0 7 -10 7 -22 -1 -13 2 -29 7 -35 5 -7 6 -13 2 -13 -4 0 -2 -7
5 -15 10 -12 10 -15 0 -15 -9 0 -10 -3 -1 -13 6 -8 8 -17 4 -20 -3 -4 -1 -7 5
-7 7 0 12 -13 12 -30 0 -16 5 -30 10 -30 6 0 10 -10 10 -23 0 -13 3 -27 7 -31
5 -4 8 -11 9 -14 1 -13 15 -47 30 -74 8 -14 14 -33 14 -42 0 -9 3 -16 8 -16 4
0 16 -16 26 -35 11 -19 24 -32 30 -28 6 3 6 1 -1 -7 -10 -10 -7 -19 10 -41 12
-15 33 -42 47 -60 14 -18 30 -38 37 -45 7 -6 9 -14 6 -18 -4 -3 -1 -6 5 -6 15
0 62 -52 56 -62 -3 -4 3 -5 12 -1 12 4 15 3 10 -5 -4 -7 -1 -12 9 -12 9 0 14
-3 12 -7 -3 -5 1 -14 9 -21 8 -7 14 -10 14 -7 0 2 9 -3 20 -13 12 -9 22 -15
24 -12 2 3 16 -8 30 -23 14 -15 26 -25 26 -21 0 4 9 -5 21 -20 11 -14 24 -24
28 -21 5 2 16 -4 26 -15 10 -11 24 -20 31 -20 7 0 14 -3 16 -7 4 -10 100 -57
111 -55 4 1 7 -2 7 -8 0 -5 6 -7 13 -4 8 3 20 -2 27 -11 7 -8 25 -15 41 -15
16 0 29 -5 29 -12 0 -6 3 -9 6 -6 3 4 20 0 37 -7 18 -7 35 -14 40 -14 4 -1 8
-1 10 -2 8 -2 38 -8 77 -14 25 -4 50 -7 55 -8 6 -1 13 -6 17 -12 5 -6 8 -5 8
4 0 11 3 11 15 1 12 -10 15 -10 15 1 0 9 3 10 8 4 9 -13 21 -15 97 -16 46 -1
63 -5 58 -13 -5 -7 -2 -7 8 1 8 6 48 13 89 14 41 1 78 7 82 13 5 8 8 7 8 -2 0
-9 5 -10 18 -4 9 5 33 8 54 8 20 -1 34 2 31 7 -2 4 3 7 11 7 9 0 16 -5 16 -12
0 -6 9 -1 19 11 14 16 21 18 24 9 4 -9 8 -10 14 -3 4 6 18 10 31 9 12 -1 25 3
28 8 3 4 10 6 15 3 5 -4 9 -2 9 3 0 5 10 8 23 7 12 -1 25 2 28 7 3 5 15 10 26
12 12 3 34 11 51 20 16 8 32 12 36 9 3 -4 6 -2 6 3 0 5 10 10 21 11 32 3 47
21 23 28 -10 4 -27 11 -38 16 -14 8 -16 7 -11 -3 6 -10 5 -11 -6 -1 -7 7 -23
13 -36 13 -13 0 -23 5 -23 10 0 6 -3 9 -7 8 -14 -5 -93 25 -93 34 0 5 -4 7 -9
3 -5 -3 -16 2 -24 10 -9 8 -22 15 -31 15 -8 0 -32 11 -52 25 -20 14 -43 25
-51 25 -8 0 -12 4 -8 9 3 5 -4 12 -15 16 -11 4 -18 11 -15 16 4 5 -1 9 -9 9
-9 0 -16 4 -16 9 0 10 -33 8 -60 -2 -8 -4 -42 -8 -75 -10 -33 -2 -67 -7 -74
-11 -8 -5 -17 -3 -22 5 -8 12 -11 12 -19 -1 -6 -9 -13 -11 -17 -5 -9 12 -33
13 -50 2 -6 -4 -13 -2 -15 4 -3 9 -10 9 -27 -1 -15 -7 -21 -8 -17 -1 5 7 -9
11 -44 11 -28 0 -49 4 -46 9 3 5 -8 7 -25 6 -19 -2 -33 3 -36 11 -4 11 -9 12
-19 3 -11 -9 -14 -8 -14 1 0 7 -7 10 -15 6 -8 -3 -15 -2 -15 2 0 4 -11 12 -25
19 -19 8 -24 8 -19 0 3 -7 -2 -3 -10 7 -9 11 -16 16 -16 11 0 -5 -7 0 -16 11
-8 10 -12 13 -9 6 6 -11 3 -11 -16 0 -13 7 -28 19 -32 26 -4 6 -15 12 -22 12
-8 0 -15 5 -15 11 0 5 -4 8 -8 5 -5 -3 -15 4 -22 15 -8 10 -19 19 -25 19 -6 0
-21 13 -35 29 -13 17 -28 27 -33 24 -6 -3 -7 -1 -3 6 4 6 0 14 -8 17 -9 3 -13
11 -9 17 3 5 1 7 -4 4 -11 -7 -78 68 -78 87 0 6 -6 15 -13 19 -7 5 -10 12 -7
18 4 5 1 9 -4 9 -6 0 -11 7 -11 15 0 8 -4 15 -10 15 -5 0 -10 5 -10 12 0 6 -8
20 -17 31 -10 11 -12 17 -5 13 11 -7 11 -4 0 15 -7 13 -17 27 -21 30 -5 3 -8
9 -8 13 1 16 -12 66 -18 66 -4 0 -8 12 -9 27 -1 15 -5 29 -10 32 -4 3 -8 11
-9 18 -7 34 -15 100 -15 116 1 9 -2 15 -6 13 -11 -6 -8 246 2 263 6 10 5 12
-2 7 -13 -8 -17 6 -5 18 4 3 8 14 10 24 1 9 5 33 9 52 3 19 6 45 7 58 0 12 4
22 7 22 3 0 7 14 8 32 2 18 7 35 13 39 6 3 9 9 8 13 -5 11 34 145 41 141 3 -2
7 6 7 18 1 12 7 23 13 25 5 2 8 7 5 12 -3 4 10 37 29 74 19 36 29 63 22 59 -6
-3 -3 3 7 14 9 11 17 25 17 31 0 7 3 12 8 12 4 0 16 18 26 40 11 22 23 40 28
40 4 0 8 7 8 15 0 8 5 15 11 15 5 0 7 5 4 10 -3 6 1 13 9 16 9 3 13 10 10 15
-3 5 0 9 5 9 6 0 11 5 11 10 0 6 8 18 18 29 52 56 81 95 76 102 -5 8 10 13 29
10 4 0 7 5 7 12 0 7 11 21 25 31 14 10 25 27 25 37 0 10 5 21 11 25 8 4 7 9
-2 15 -12 7 -12 9 0 9 7 0 11 6 8 15 -4 8 -2 17 2 19 11 7 2 90 -10 94 -5 2
-9 8 -9 14 0 24 -66 68 -103 68 -15 0 -26 4 -23 8 2 4 -4 8 -15 8 -10 0 -20
-4 -21 -8z"/>
<path d="M3426 3733 c-4 -4 -26 -8 -49 -9 -78 -2 -216 -27 -249 -45 -10 -5
-23 -7 -28 -4 -6 3 -10 1 -10 -4 0 -6 -7 -11 -15 -11 -8 0 -15 -4 -15 -8 0 -5
-7 -9 -15 -10 -8 -1 -22 -3 -30 -4 -8 -1 -15 -5 -15 -10 0 -5 -4 -6 -10 -3 -5
3 -10 1 -10 -5 0 -6 -4 -9 -9 -5 -5 3 -16 -1 -23 -9 -8 -7 -25 -17 -38 -21
-27 -9 -44 -24 -48 -44 -3 -12 0 -12 12 -1 9 7 16 8 16 3 0 -5 10 -10 22 -10
13 -1 24 -7 26 -13 2 -5 14 -10 26 -10 12 0 31 -8 42 -18 11 -10 25 -17 32
-14 6 2 15 -3 18 -12 3 -9 10 -14 15 -11 12 8 76 -29 110 -64 16 -17 34 -31
39 -31 6 0 10 -7 10 -16 0 -8 4 -13 9 -9 6 3 14 -3 20 -12 10 -17 10 -16 11 2
0 12 6 27 13 34 10 11 9 13 -1 7 -14 -9 31 77 56 104 18 19 68 79 80 96 16 21
84 78 78 64 -5 -8 8 2 28 24 20 21 36 35 36 31 0 -4 6 -3 13 2 6 6 20 9 29 8
14 -3 16 0 8 15 -8 14 -21 17 -82 15 -40 -1 -78 2 -84 7 -6 4 -14 5 -18 1z"/>
<path d="M3776 3703 c-3 -8 -2 -11 3 -8 5 3 12 1 16 -5 4 -6 11 -8 16 -5 5 4
9 1 9 -5 0 -7 7 -9 16 -6 8 3 12 2 9 -4 -5 -9 15 -15 38 -11 4 0 6 -3 5 -8 -2
-5 1 -9 6 -9 5 0 12 -5 16 -11 3 -6 17 -14 31 -16 13 -3 32 -14 42 -26 9 -12
17 -18 17 -14 0 3 7 0 15 -7 30 -27 44 -38 50 -38 13 0 34 -28 27 -35 -4 -5
-2 -5 5 -1 7 4 18 -2 25 -14 7 -11 19 -20 27 -20 8 0 11 -3 8 -7 -4 -3 2 -12
13 -20 11 -8 20 -20 20 -26 0 -7 8 -20 18 -28 26 -24 53 -59 45 -59 -4 0 3 -7
15 -16 12 -8 22 -24 22 -35 0 -13 4 -18 12 -13 8 5 9 2 5 -9 -3 -10 -3 -17 2
-17 8 0 21 -23 52 -97 7 -17 17 -29 23 -26 5 4 7 -3 4 -15 -4 -12 0 -26 8 -33
8 -7 13 -18 10 -26 -3 -8 -2 -12 3 -8 9 5 27 -70 23 -88 -2 -5 2 -6 8 -2 8 5
16 -47 11 -77 0 -5 3 -8 7 -8 8 0 11 -25 14 -90 0 -8 5 -20 10 -27 5 -7 5 -14
-2 -18 -6 -3 -7 -12 -3 -18 11 -17 10 -41 -2 -49 -6 -5 -6 -8 1 -8 7 0 11 -14
8 -35 -2 -26 0 -34 9 -28 9 5 9 3 1 -8 -6 -8 -9 -26 -8 -41 2 -17 -2 -28 -9
-28 -8 0 -9 -3 -1 -8 12 -8 14 -62 2 -62 -5 0 -4 -8 1 -19 6 -10 7 -22 3 -25
-7 -7 -10 -30 -14 -108 -1 -20 -6 -34 -10 -32 -5 3 -7 -6 -4 -20 3 -14 1 -26
-3 -26 -3 0 -7 -8 -8 -17 -3 -36 -10 -70 -17 -81 -7 -12 -17 -48 -18 -69 -1
-7 -5 -13 -10 -13 -5 0 -7 -4 -3 -9 3 -5 1 -12 -4 -16 -5 -3 -8 -14 -6 -25 2
-11 0 -20 -6 -20 -5 0 -9 -9 -9 -19 0 -11 -5 -23 -10 -26 -6 -4 -8 -11 -5 -16
4 -5 2 -9 -3 -9 -5 0 -9 -10 -8 -22 1 -15 -4 -22 -13 -20 -12 3 -12 1 0 -14 9
-12 9 -15 2 -10 -9 5 -13 0 -13 -14 0 -13 -4 -19 -12 -14 -6 4 -8 3 -4 -4 3
-6 -3 -27 -14 -47 -11 -19 -20 -40 -20 -46 0 -6 -6 -17 -12 -24 -25 -27 -34
-40 -37 -50 -10 -31 -15 -41 -27 -55 -7 -8 -13 -17 -13 -20 0 -17 -22 -60 -31
-60 -6 0 -9 -4 -6 -8 3 -5 -8 -23 -24 -41 -17 -18 -30 -37 -30 -42 0 -5 -7
-12 -15 -15 -8 -4 -15 -11 -15 -16 0 -15 -37 -58 -44 -51 -3 3 -6 -1 -6 -10 0
-10 -4 -17 -9 -17 -5 0 -13 -9 -16 -20 -4 -11 -11 -18 -16 -15 -5 4 -9 1 -9
-4 0 -6 -18 -29 -40 -51 -22 -22 -40 -45 -40 -51 0 -5 -4 -8 -9 -4 -5 3 -12
-4 -16 -15 -3 -11 -11 -20 -16 -20 -5 0 -9 -7 -9 -16 0 -8 -4 -13 -9 -10 -5 3
-12 -1 -15 -10 -3 -8 -10 -12 -16 -9 -5 3 -10 -1 -10 -9 0 -8 -10 -21 -22 -27
-13 -7 -35 -25 -50 -41 -14 -15 -29 -28 -32 -28 -4 0 -18 -12 -32 -28 -14 -15
-31 -27 -37 -27 -7 -1 -11 -6 -9 -13 1 -7 -5 -13 -13 -13 -8 -1 -18 -2 -22 -4
-52 -14 -63 -19 -63 -27 0 -5 -4 -6 -10 -3 -5 3 -10 1 -10 -4 0 -6 -6 -11 -12
-11 -17 -1 -49 -45 -51 -70 -1 -11 -4 -20 -8 -20 -4 0 -6 -14 -5 -31 1 -16 -1
-32 -5 -34 -9 -6 1 -55 12 -55 5 0 8 -3 8 -7 -4 -23 2 -43 11 -38 6 3 10 0 10
-7 0 -15 35 -48 50 -48 6 0 10 -4 10 -8 0 -20 117 -23 160 -5 19 9 40 16 47
16 7 0 11 5 10 11 -1 5 3 10 8 11 12 0 40 23 113 92 30 29 60 50 66 46 6 -3 8
-3 4 2 -9 10 31 47 43 39 5 -3 9 -1 9 5 0 5 13 23 30 39 16 17 30 29 30 27 0
-2 21 19 48 48 26 29 50 54 55 55 4 2 5 8 2 13 -4 5 2 6 12 2 10 -3 15 -3 12
1 -4 4 4 19 17 33 13 14 24 32 24 39 0 8 7 14 15 14 8 0 15 7 15 15 0 8 5 15
10 15 6 0 9 3 8 7 -2 5 2 10 7 12 6 2 27 27 48 55 21 28 42 53 47 54 6 2 10
10 10 18 0 8 3 14 8 14 4 0 21 23 37 50 17 27 33 50 38 50 4 0 7 7 7 15 0 8 5
15 11 15 5 0 7 4 4 10 -3 5 -2 10 3 10 5 0 15 14 22 30 7 17 16 30 20 30 8 0
23 38 21 53 -1 4 4 7 10 7 6 0 8 7 5 16 -3 8 -2 12 4 9 6 -3 10 3 10 14 0 12
5 21 10 21 6 0 10 6 10 14 0 8 6 27 14 43 36 69 55 117 50 125 -3 4 -1 8 4 8
11 0 25 38 22 59 -1 7 3 10 9 6 7 -4 11 5 11 25 0 17 4 29 9 26 5 -3 9 6 9 20
0 15 3 29 8 33 5 3 9 15 8 26 0 11 4 25 8 31 5 7 9 28 10 47 1 20 4 34 8 32 3
-2 7 7 8 21 3 44 5 54 11 54 3 0 7 19 8 43 1 23 4 58 7 77 3 19 7 65 8 103 1
37 6 67 11 67 5 0 4 7 -3 15 -10 12 -10 15 0 15 10 0 10 3 0 15 -7 8 -9 15 -4
15 5 0 9 20 9 44 1 25 -3 42 -7 40 -4 -3 -8 -1 -8 5 0 5 6 11 13 14 9 3 9 7
-2 20 -11 14 -11 17 0 17 11 0 11 2 -1 10 -11 7 -11 10 -2 10 8 0 10 5 5 13
-8 11 -9 26 -14 107 -1 19 -5 40 -9 45 -4 6 -7 22 -6 37 1 14 -2 24 -6 22 -4
-3 -8 9 -8 25 0 17 -4 31 -8 31 -4 0 -9 15 -10 32 -2 18 -7 37 -12 42 -6 6
-10 16 -10 22 0 7 -5 25 -12 41 -6 15 -12 34 -14 42 -1 8 -8 17 -14 21 -7 4
-11 9 -10 11 3 9 -19 57 -30 64 -5 3 -8 10 -5 15 3 5 1 11 -5 15 -6 4 -7 11
-4 17 4 7 2 8 -4 4 -7 -4 -12 -2 -12 3 0 22 -2 26 -16 34 -8 4 -14 13 -14 18
0 6 -10 20 -22 31 -13 11 -16 17 -8 13 12 -5 12 -4 -1 7 -9 7 -16 16 -15 20 1
3 -12 21 -29 40 -16 18 -29 36 -28 40 2 4 -7 10 -18 13 -12 4 -18 13 -15 20 3
9 0 12 -8 9 -7 -3 -25 7 -40 21 -15 14 -30 25 -34 25 -4 0 -19 10 -34 23 -49
41 -64 52 -79 55 -7 2 -16 7 -19 10 -3 4 -12 8 -20 10 -8 2 -23 11 -33 19 -9
9 -20 13 -23 10 -4 -3 -13 1 -21 9 -8 8 -19 12 -24 9 -5 -4 -9 -1 -9 5 0 6 -5
8 -10 5 -6 -4 -16 -2 -23 3 -19 16 -99 42 -130 42 -16 0 -26 4 -22 10 3 6 2
10 -4 10 -5 0 -13 -5 -16 -10 -5 -8 -11 -7 -20 0 -8 7 -19 9 -25 5 -5 -3 -10
-3 -10 2 0 14 -49 11 -54 -4z"/>
<path d="M3670 3437 c0 -6 -3 -8 -6 -4 -20 20 -144 -74 -144 -109 0 -9 -4 -13
-9 -9 -6 3 -10 -3 -10 -12 0 -18 -8 -58 -11 -58 -2 0 -3 -26 -4 -57 -1 -32 1
-58 4 -58 4 0 7 -7 8 -15 1 -8 3 -22 4 -30 1 -8 5 -12 9 -9 4 2 11 -6 15 -18
8 -27 29 -49 38 -41 3 4 6 -1 6 -10 0 -9 5 -19 12 -23 7 -5 8 -3 3 7 -5 8 0 7
12 -3 11 -10 27 -18 36 -18 9 0 17 -6 17 -12 0 -9 4 -8 10 2 5 8 10 10 10 5 0
-15 40 -16 40 -2 0 8 3 9 8 1 8 -12 62 -14 62 -1 0 4 4 6 9 2 5 -3 12 -1 16 5
4 6 10 8 15 5 4 -3 10 2 14 10 3 8 11 15 18 15 7 0 22 12 33 27 11 14 26 32
32 39 7 7 15 21 16 31 2 10 9 29 14 43 8 18 7 29 -1 39 -8 11 -8 13 0 8 8 -4
11 5 10 28 0 19 -5 35 -10 35 -5 0 -7 3 -3 6 15 15 -55 124 -80 124 -8 0 -11
5 -8 10 3 6 -2 13 -12 17 -10 3 -24 11 -31 16 -7 6 -23 12 -35 13 -88 11 -107
11 -107 1z"/>
<path d="M2445 3279 c-3 -3 -18 -5 -34 -4 -18 1 -28 -2 -24 -8 4 -6 0 -8 -10
-4 -10 3 -17 3 -17 -1 0 -4 -10 -8 -22 -9 -11 -1 -24 -7 -28 -13 -4 -7 -10
-11 -14 -11 -29 4 -46 -1 -40 -11 5 -8 2 -9 -9 -5 -10 3 -17 2 -17 -3 0 -6 -6
-10 -14 -10 -7 0 -19 -7 -26 -15 -7 -9 -15 -14 -17 -11 -2 2 -18 -9 -34 -25
-16 -16 -34 -29 -40 -29 -6 0 -7 -4 -4 -10 3 -5 0 -10 -9 -10 -12 0 -39 -25
-118 -111 -10 -10 -18 -23 -18 -29 0 -5 -4 -10 -9 -10 -5 0 -31 -45 -59 -100
-28 -55 -45 -97 -39 -94 8 5 8 2 0 -7 -7 -7 -13 -21 -13 -31 0 -10 -6 -18 -12
-18 -10 0 -9 -3 1 -9 11 -7 11 -9 0 -14 -12 -5 -12 -6 0 -6 9 -1 10 -5 4 -13
-14 -17 -25 -81 -14 -73 6 3 6 -9 0 -29 -6 -21 -6 -43 0 -59 7 -18 7 -27 -2
-31 -8 -3 -8 -5 -1 -5 6 -1 9 -12 6 -26 -2 -14 0 -25 6 -25 6 0 9 -11 7 -25
-1 -14 1 -25 6 -25 5 0 6 -6 3 -14 -3 -8 -1 -17 5 -21 6 -3 11 -14 11 -24 0
-10 7 -24 15 -31 8 -7 15 -21 15 -31 0 -11 4 -19 10 -19 5 0 6 -7 3 -17 -4
-11 -3 -14 5 -9 8 5 12 0 12 -13 0 -12 5 -21 10 -21 6 0 10 -7 10 -16 0 -8 5
-12 10 -9 6 3 10 1 10 -6 0 -16 42 -59 59 -59 8 0 11 -3 8 -7 -4 -3 4 -15 17
-27 53 -48 77 -66 87 -66 5 0 7 -4 4 -10 -3 -5 1 -10 9 -10 8 0 20 -8 25 -17
6 -10 11 -14 11 -9 0 5 9 1 20 -9 11 -10 20 -15 20 -11 0 3 10 0 23 -9 13 -8
27 -12 30 -8 4 3 7 1 7 -5 0 -7 8 -12 18 -12 10 0 24 -6 31 -12 11 -11 12 -10
6 2 -7 12 -6 13 6 3 13 -10 33 -16 96 -27 7 -1 16 -5 19 -9 4 -4 12 -7 18 -7
6 0 4 5 -4 10 -12 7 -10 9 7 7 12 0 19 -5 17 -9 -7 -11 4 -10 28 3 11 6 18 7
15 2 -3 -5 9 -9 28 -9 21 0 31 4 27 11 -3 5 1 4 10 -2 8 -7 18 -10 22 -6 6 6
30 10 84 15 6 1 12 5 12 10 0 5 6 8 13 7 24 -4 72 15 126 49 29 19 50 28 46
21 -5 -8 1 -5 13 5 24 21 28 40 12 59 -6 7 -24 28 -40 47 -16 19 -30 41 -30
48 0 6 -4 12 -9 12 -4 0 -19 20 -31 44 -32 60 -52 70 -83 46 -13 -11 -27 -16
-31 -13 -3 3 -6 1 -6 -4 0 -6 -8 -10 -17 -9 -10 2 -20 -1 -23 -5 -3 -5 -29
-10 -56 -12 -28 -2 -57 -8 -64 -12 -8 -5 -11 -4 -7 1 3 6 -12 11 -35 11 -22 1
-46 7 -53 13 -7 6 -20 8 -29 4 -9 -3 -16 -1 -16 6 0 6 -4 8 -10 5 -5 -3 -10
-1 -10 5 0 6 -4 9 -9 6 -5 -3 -14 1 -21 9 -7 8 -16 12 -21 9 -5 -3 -9 2 -9 11
0 9 -5 13 -10 10 -6 -3 -13 1 -16 9 -3 9 -11 16 -18 16 -13 0 -42 40 -38 53 1
5 -2 6 -8 2 -5 -3 -10 1 -10 10 0 9 -5 13 -11 9 -7 -4 -10 -1 -7 7 3 8 -2 20
-11 27 -12 10 -12 11 -1 6 9 -5 6 3 -7 19 -12 16 -20 37 -18 48 2 11 0 17 -5
14 -4 -3 -8 38 -7 90 0 52 5 95 10 95 5 0 7 6 4 13 -2 6 2 24 10 39 7 15 12
30 11 32 -3 4 46 69 68 90 56 55 176 133 158 104 -4 -6 1 -6 14 1 11 6 44 13
74 16 29 4 59 8 66 11 7 2 11 0 8 -5 -3 -5 6 -9 22 -8 57 0 83 -3 78 -12 -4
-5 3 -7 14 -4 11 3 20 0 20 -6 0 -6 9 -11 20 -11 11 0 20 -4 20 -10 0 -5 9
-10 20 -10 11 0 20 -4 20 -10 0 -14 37 -50 44 -42 3 3 6 -2 6 -11 0 -9 5 -17
11 -17 5 0 8 -4 5 -9 -3 -5 1 -11 9 -14 17 -7 57 -82 48 -91 -4 -3 -1 -6 4 -6
6 0 10 -11 9 -25 -2 -13 1 -22 5 -19 17 10 15 -156 -2 -187 -13 -23 -14 -28
-17 -57 -1 -8 -7 -10 -14 -6 -7 4 -10 4 -6 -1 4 -4 3 -16 -3 -27 -12 -22 -21
-64 -12 -55 6 6 43 -35 43 -48 0 -4 12 -19 28 -33 15 -13 20 -21 12 -17 -8 4
-4 -4 10 -17 41 -41 70 -77 70 -88 0 -5 11 -12 25 -16 27 -7 55 10 55 32 0 8
5 14 12 14 6 0 8 3 5 7 -4 3 2 12 13 20 11 8 20 23 20 34 0 11 5 17 10 14 6
-3 10 2 10 12 0 11 5 24 12 31 7 7 8 12 2 12 -5 0 -3 4 4 8 7 5 14 19 17 31 2
13 10 30 17 39 11 13 11 15 -2 7 -12 -6 -13 -5 -2 6 6 7 12 28 12 45 0 18 4
35 9 38 5 3 8 19 7 36 -1 16 0 30 3 30 4 0 6 27 7 60 0 33 -3 60 -8 60 -5 0
-4 8 1 18 6 11 6 24 -1 36 -5 10 -8 28 -5 42 2 13 0 21 -4 18 -5 -3 -9 3 -9
13 0 11 -6 25 -12 32 -11 11 -10 12 1 6 11 -6 10 -2 -2 16 -9 13 -17 31 -17
41 0 10 -4 18 -10 18 -5 0 -10 9 -10 20 0 11 -4 20 -10 20 -5 0 -10 7 -10 16
0 8 -12 31 -26 50 -15 19 -24 34 -21 34 13 0 -105 111 -137 128 -23 12 -32 22
-24 25 12 5 7 7 -17 7 -3 0 -14 9 -25 20 -12 12 -25 18 -29 15 -5 -2 -14 2
-21 10 -7 8 -19 15 -26 15 -8 0 -14 4 -14 8 0 4 -10 9 -22 9 -13 1 -24 7 -26
13 -2 5 -15 10 -28 10 -13 0 -24 4 -24 8 0 4 -8 8 -17 9 -10 0 -29 4 -43 8
-33 8 -221 12 -225 4z"/>
<path d="M4140 2953 c0 -7 -5 -13 -11 -13 -5 0 -7 -4 -4 -10 3 -5 -1 -10 -10
-10 -9 0 -13 -5 -10 -10 3 -6 -1 -13 -9 -16 -9 -3 -13 -10 -10 -15 3 -5 -2 -9
-10 -9 -9 0 -15 -3 -15 -7 3 -20 -2 -34 -11 -28 -5 3 -10 2 -10 -4 0 -5 6 -12
13 -14 10 -4 10 -6 0 -6 -7 -1 -13 -6 -13 -12 0 -5 3 -8 8 -6 9 6 11 -27 12
-188 0 -72 -4 -131 -10 -133 -5 -2 -5 -13 0 -28 7 -17 7 -23 0 -19 -6 3 -10 0
-11 -7 0 -7 -2 -22 -5 -33 -2 -11 -5 -33 -6 -48 0 -15 -5 -30 -10 -33 -4 -3
-8 -21 -8 -40 0 -19 -5 -34 -11 -34 -6 0 -9 -7 -5 -15 3 -8 2 -15 -3 -15 -5 0
-8 -8 -8 -17 0 -34 -3 -44 -12 -39 -4 3 -8 -2 -8 -12 1 -16 -31 -91 -44 -102
-3 -3 -14 -26 -25 -52 -10 -27 -22 -48 -26 -48 -5 0 -8 -7 -8 -15 0 -8 -4 -15
-10 -15 -5 0 -7 -7 -4 -15 4 -8 1 -15 -5 -15 -6 0 -11 -7 -11 -15 0 -8 -5 -15
-11 -15 -5 0 -8 -4 -5 -8 3 -5 -8 -23 -23 -40 -16 -17 -27 -33 -24 -36 3 -2
-4 -11 -16 -18 -12 -7 -21 -16 -21 -20 0 -5 -9 -17 -20 -28 -12 -12 -18 -25
-15 -30 3 -6 -1 -7 -10 -4 -11 5 -14 2 -8 -12 4 -11 3 -15 -5 -10 -6 3 -13 -3
-17 -14 -3 -11 -11 -20 -17 -20 -6 0 -8 -3 -5 -7 4 -3 -3 -11 -14 -17 -12 -6
-22 -15 -23 -21 0 -5 -17 -25 -36 -44 -19 -19 -35 -37 -35 -41 0 -8 -31 -40
-39 -40 -3 0 -21 -16 -41 -35 -19 -20 -35 -33 -35 -31 0 3 -18 -13 -40 -35
-22 -22 -40 -39 -40 -36 0 2 -24 -18 -52 -44 -29 -27 -59 -49 -66 -49 -7 0
-15 -7 -18 -15 -4 -8 -10 -13 -14 -10 -5 3 -12 -1 -17 -8 -13 -21 -70 -57 -78
-49 -5 4 -5 2 -2 -4 6 -10 -16 -27 -27 -21 -3 1 -17 -9 -32 -23 -15 -14 -24
-19 -20 -12 7 11 4 11 -15 0 -13 -7 -27 -17 -31 -23 -5 -7 -8 -7 -8 0 0 6 -3
6 -8 0 -8 -12 -64 -39 -74 -37 -5 1 -8 -2 -8 -8 0 -5 -7 -10 -15 -10 -7 0 -18
-6 -22 -14 -4 -8 -10 -15 -13 -14 -20 0 -60 -16 -60 -25 0 -6 -3 -8 -6 -4 -4
3 -19 0 -34 -8 -15 -8 -30 -11 -34 -8 -3 4 -6 1 -6 -5 0 -7 -6 -12 -14 -12 -7
0 -27 -7 -42 -15 -16 -8 -24 -15 -17 -15 7 0 9 -9 6 -22 -3 -13 -2 -20 2 -16
7 7 21 -10 42 -52 7 -15 17 -28 40 -54 7 -8 9 -16 6 -20 -4 -3 -1 -6 5 -6 7 0
12 -6 12 -14 0 -26 27 -25 82 3 54 28 106 46 121 43 4 -1 7 2 7 8 0 5 9 10 20
10 11 0 20 4 20 9 0 13 40 21 41 8 0 -7 4 -2 9 11 6 12 18 22 30 22 11 0 20 5
20 11 0 5 3 8 8 6 4 -2 21 4 37 14 17 11 38 22 48 25 9 4 17 10 17 14 0 9 40
25 53 22 4 -1 10 5 13 13 4 8 24 25 45 37 21 12 39 25 39 30 0 4 6 8 14 8 7 0
19 7 26 15 7 9 15 13 18 10 3 -3 11 4 19 15 8 11 21 20 29 20 8 0 12 5 9 10
-3 6 -1 10 5 10 7 0 24 9 40 20 15 11 30 16 34 12 4 -4 7 -2 6 3 -4 19 0 35 8
33 4 -2 31 20 59 49 28 28 54 49 57 46 3 -4 6 1 6 11 0 9 3 15 8 13 4 -2 15 4
25 15 9 10 15 18 13 18 -3 0 28 33 67 74 74 76 114 121 119 134 2 4 6 6 11 5
4 -2 7 6 7 17 0 11 7 23 15 26 8 4 15 12 15 20 0 8 7 14 15 14 8 0 14 3 14 8
-3 19 2 33 10 28 5 -3 12 5 15 19 4 14 11 25 16 25 6 0 10 6 10 14 0 7 7 19
15 26 9 7 13 15 10 18 -3 3 5 16 17 29 12 13 18 23 14 23 -4 0 4 15 18 33 15
19 26 41 26 50 0 10 4 17 9 17 5 0 12 14 16 30 4 17 11 30 17 30 6 0 8 6 5 13
-3 7 1 21 9 31 7 11 11 22 9 27 -3 4 -1 10 5 14 5 3 10 16 10 29 0 12 6 28 13
35 10 11 9 12 -3 6 -12 -7 -13 -6 -3 6 6 8 14 28 17 44 3 17 10 31 16 33 5 2
10 8 10 13 0 6 -6 7 -12 3 -10 -6 -10 -5 -1 8 7 8 10 18 6 21 -3 4 -2 7 3 7 5
0 9 16 8 35 -1 19 3 35 8 35 6 0 4 8 -3 17 -12 14 -12 16 0 8 11 -6 13 -1 9
24 -2 17 -1 31 3 31 5 0 7 65 6 145 -1 80 -4 145 -7 145 -3 0 -6 18 -5 39 1
22 -3 37 -7 35 -4 -3 -9 6 -9 20 -2 29 -3 34 -13 59 -5 9 -5 24 -2 33 3 8 2
12 -4 9 -6 -3 -11 -1 -11 4 -1 6 -2 14 -4 19 -1 4 -5 21 -9 37 -12 47 -26 72
-42 72 -8 0 -14 -6 -14 -14z"/>
<path d="M3815 2728 c-11 -6 -26 -18 -32 -26 -9 -10 -13 -11 -13 -4 0 10 -3
10 -14 0 -8 -7 -12 -16 -9 -20 2 -5 -1 -8 -6 -8 -6 0 -11 -13 -11 -30 0 -16
-5 -30 -10 -30 -7 0 -7 -6 -1 -18 6 -11 6 -23 2 -28 -7 -7 -33 -76 -36 -94 0
-3 -6 -15 -13 -26 -6 -12 -8 -24 -5 -28 3 -3 1 -6 -5 -6 -7 0 -12 -6 -12 -13
0 -7 -5 -18 -12 -25 -6 -6 -13 -22 -15 -34 -2 -13 -8 -24 -13 -26 -6 -2 -10
-10 -10 -18 0 -8 -5 -14 -12 -14 -6 0 -8 -3 -5 -7 4 -3 -9 -28 -28 -55 -19
-26 -35 -53 -35 -58 0 -6 -5 -10 -11 -10 -5 0 -8 -4 -5 -9 4 -5 -14 -31 -39
-58 -25 -26 -52 -55 -60 -64 -8 -9 -15 -21 -15 -28 0 -7 -3 -10 -7 -8 -5 3
-19 -9 -32 -26 -13 -18 -41 -45 -61 -62 -21 -16 -35 -34 -32 -39 3 -5 -2 -6
-12 -3 -10 4 -15 3 -11 -3 3 -6 1 -10 -5 -10 -6 0 -8 -5 -4 -12 4 -6 3 -8 -4
-4 -6 3 -18 -4 -26 -16 -9 -12 -16 -18 -16 -13 0 5 -11 -6 -25 -25 -14 -19
-25 -30 -25 -24 0 5 -6 2 -13 -6 -7 -8 -19 -16 -27 -18 -8 -2 -19 -10 -23 -18
-4 -8 -13 -14 -18 -14 -6 0 -17 -6 -24 -12 -33 -30 -45 -38 -55 -38 -5 0 -10
-5 -10 -12 0 -6 -3 -9 -6 -5 -4 3 -27 -8 -53 -26 -25 -17 -49 -32 -53 -32 -4
0 -16 -7 -25 -15 -52 -42 -57 -46 -48 -30 4 8 -3 6 -16 -6 -25 -22 -58 -38
-71 -36 -5 1 -8 -3 -8 -9 0 -5 -4 -8 -9 -4 -5 3 -16 -1 -24 -9 -8 -8 -17 -12
-21 -9 -3 4 -6 1 -6 -6 0 -7 -4 -10 -9 -6 -5 3 -12 1 -16 -5 -4 -6 -11 -8 -16
-5 -5 4 -9 2 -9 -3 0 -9 -65 -28 -82 -24 -5 1 -8 -2 -8 -8 0 -5 -9 -10 -20
-10 -11 0 -20 -4 -20 -9 0 -6 -9 -8 -20 -6 -11 2 -20 -1 -20 -6 0 -6 -4 -7
-10 -4 -5 3 -10 1 -10 -5 0 -6 -4 -9 -9 -6 -5 3 -23 -1 -40 -10 -17 -8 -43
-17 -58 -20 -14 -3 -31 -8 -37 -12 -6 -3 -17 -7 -26 -8 -8 -1 -30 -7 -49 -13
-19 -6 -38 -8 -42 -5 -5 3 -9 0 -9 -6 0 -7 -7 -10 -15 -6 -8 3 -15 2 -15 -2 0
-5 -11 -9 -25 -10 -14 -1 -36 -2 -50 -3 -14 -1 -25 -5 -25 -8 0 -4 -10 -8 -22
-8 -13 -1 -43 -4 -68 -8 -25 -4 -62 -7 -82 -8 -21 -1 -38 -4 -38 -7 0 -3 -24
-6 -53 -7 -153 -5 -176 -7 -170 -16 4 -6 1 -7 -8 -1 -8 5 -52 10 -99 11 -47 1
-105 4 -130 8 -25 3 -65 7 -90 9 -25 3 -45 5 -45 6 0 2 -37 11 -65 15 -14 1
-25 4 -25 5 0 2 -9 4 -20 6 -20 3 -72 14 -90 19 -5 1 -25 6 -42 10 -18 4 -31
10 -29 14 2 3 -6 7 -17 8 -23 2 -60 10 -64 13 -3 3 -8 4 -40 15 -13 4 -20 11
-17 16 3 5 2 8 -3 7 -13 -5 -132 55 -127 63 2 4 -5 5 -17 2 -13 -4 -30 3 -49
22 -16 15 -33 24 -38 21 -6 -3 -13 2 -17 13 -3 11 -19 25 -35 32 -16 8 -27 16
-24 20 2 4 -3 10 -12 13 -8 3 -12 11 -8 17 4 8 3 9 -4 5 -7 -4 -12 -1 -12 9 0
9 -3 14 -7 12 -11 -7 -33 19 -25 29 4 4 1 4 -5 0 -8 -5 -10 -13 -4 -24 26 -49
45 -99 45 -114 -1 -10 3 -15 7 -12 5 3 9 -2 9 -10 0 -9 5 -16 11 -16 5 0 7 -4
4 -10 -3 -5 -1 -10 4 -10 6 0 11 -7 11 -15 0 -8 7 -15 16 -15 8 0 12 -5 9 -10
-3 -6 1 -13 9 -16 9 -3 13 -10 10 -15 -3 -5 0 -9 5 -9 6 0 11 -5 11 -10 0 -6
21 -31 47 -55 26 -25 42 -45 37 -45 -5 -1 4 -8 19 -16 15 -8 25 -19 22 -24 -4
-6 -1 -10 6 -10 7 0 27 -16 46 -35 19 -19 38 -35 43 -35 6 0 19 -9 30 -20 12
-12 25 -18 30 -15 6 4 10 1 10 -4 0 -6 5 -11 11 -11 6 0 17 -7 26 -16 9 -8 22
-13 29 -10 8 3 14 -1 14 -9 0 -9 6 -12 15 -9 8 4 15 2 15 -3 0 -4 9 -14 21
-21 13 -9 18 -9 14 -2 -7 12 -5 11 62 -24 17 -9 35 -16 40 -15 20 3 34 -2 28
-10 -3 -6 3 -8 15 -6 11 2 22 -1 25 -6 4 -5 11 -7 16 -4 5 4 9 0 9 -7 0 -9 3
-9 10 2 5 8 10 10 10 4 0 -6 11 -10 25 -9 14 2 25 -1 25 -6 0 -5 10 -9 23 -9
12 0 32 -1 44 -1 13 0 25 -4 28 -9 3 -6 16 -5 30 0 16 6 27 6 31 -1 4 -7 10
-7 18 0 7 6 16 7 20 3 11 -10 215 -11 222 0 3 5 12 4 20 -3 11 -9 17 -9 29 1
12 10 15 10 15 0 0 -10 3 -10 15 0 12 10 15 10 15 -1 0 -9 3 -10 8 -4 4 6 27
12 52 14 25 2 53 7 64 13 14 7 17 7 11 -2 -6 -9 -2 -9 14 -1 12 7 26 9 31 6 6
-3 10 -2 10 3 0 5 10 9 23 8 12 -1 38 3 58 10 28 9 40 10 49 1 10 -9 11 -9 6
1 -6 11 18 18 47 13 4 0 7 3 7 9 0 5 7 6 17 3 11 -5 14 -3 8 6 -6 10 -3 11 15
1 15 -8 20 -8 16 -1 -5 7 2 11 18 11 14 0 28 5 31 11 4 5 12 8 18 6 7 -2 26 1
44 8 17 8 34 11 37 7 3 -3 6 0 6 6 0 7 3 11 8 11 20 -4 71 15 65 24 -3 5 -1 7
5 3 6 -3 23 -1 39 6 15 6 36 12 45 13 10 1 25 8 35 16 10 8 14 9 10 2 -4 -6
13 -1 38 13 24 14 50 22 56 18 8 -4 9 -3 5 4 -5 8 0 12 13 12 12 0 21 5 21 10
0 6 9 10 20 10 11 0 20 5 20 10 0 6 6 10 13 10 8 0 34 11 58 25 24 14 58 32
76 42 18 9 29 21 26 27 -3 6 -3 8 2 4 4 -4 17 -2 29 4 11 7 25 11 29 10 5 -1
6 2 3 7 -4 5 4 13 16 17 13 4 25 10 28 14 3 4 26 21 52 37 26 17 45 33 42 36
-3 3 8 8 25 12 17 4 29 11 25 16 -3 5 0 9 6 9 10 0 41 26 126 106 24 23 44 40
44 38 0 -3 24 21 53 51 28 31 73 78 99 105 25 27 49 58 53 69 3 12 11 21 16
21 6 0 8 4 5 9 -3 5 1 12 10 15 8 3 12 10 9 16 -3 5 1 10 10 10 9 0 13 5 10
10 -3 6 1 13 9 16 9 3 14 10 11 14 -3 5 3 16 12 26 17 17 27 33 64 104 10 19
19 31 19 25 1 -10 30 50 34 70 1 6 7 19 13 30 11 20 13 27 13 46 0 5 4 8 9 5
5 -4 7 3 4 14 -3 11 -1 20 4 20 5 0 9 8 10 18 3 42 8 60 14 56 4 -2 9 7 11 21
3 15 1 25 -6 25 -7 0 -7 3 1 8 7 4 14 18 16 30 2 12 6 25 10 28 4 4 7 24 7 44
0 20 6 42 13 49 10 11 10 13 0 7 -16 -9 -16 -5 -3 28 7 18 6 26 -1 26 -8 0 -7
5 1 15 10 12 10 15 -1 15 -9 0 -10 3 -4 8 12 8 13 27 3 38 -4 4 -3 13 3 21 8
9 8 17 0 26 -6 8 -8 17 -4 20 9 10 1 8 -22 -5z"/>
<path d="M2210 730 c0 -4 -10 -6 -23 -5 -13 2 -41 -6 -62 -16 -34 -17 -55 -36
-103 -94 -8 -9 -16 -33 -29 -85 -10 -40 -5 -138 8 -150 3 -3 13 -22 23 -43 9
-20 21 -35 27 -32 5 4 9 1 9 -5 0 -14 51 -56 62 -52 5 1 8 -2 8 -7 0 -11 59
-33 70 -26 5 3 11 1 14 -4 4 -5 19 -7 34 -4 15 3 37 6 50 6 12 1 22 5 22 9 0
4 9 8 20 8 11 0 20 4 20 9 0 5 9 11 21 14 12 3 18 10 14 17 -3 6 -3 9 2 8 13
-4 67 55 71 78 2 10 7 24 12 29 4 6 7 22 6 38 -1 15 2 27 6 27 4 0 5 6 3 13
-3 6 -7 28 -9 47 -6 54 -18 100 -27 106 -5 3 -7 10 -3 15 3 5 2 8 -3 7 -4 -2
-8 0 -8 4 0 13 -97 78 -106 72 -5 -3 -9 -1 -9 5 0 5 -9 8 -20 6 -11 -2 -20 0
-20 6 0 5 -5 9 -11 9 -5 0 -7 -5 -3 -12 5 -7 3 -8 -6 -3 -18 11 -60 15 -60 5z"/>
<path d="M1135 722 c-7 -8 23 -32 40 -32 10 0 13 -5 9 -12 -5 -8 -2 -9 9 -5
10 3 17 2 17 -3 0 -6 8 -10 18 -10 9 0 26 -7 36 -15 11 -8 29 -15 41 -15 12 0
25 -4 31 -10 5 -5 29 -11 52 -12 22 -1 39 -5 37 -8 -7 -12 29 -6 37 5 5 7 8 7
8 0 0 -11 59 -13 75 -3 6 3 30 7 55 9 43 3 55 6 101 30 17 8 19 8 13 -3 -6
-10 -5 -11 8 -1 8 7 19 9 23 5 5 -4 5 -1 1 6 -6 11 5 17 27 13 4 0 7 3 7 9 0
5 16 17 36 26 21 10 31 20 24 24 -19 12 -108 4 -126 -11 -11 -8 -15 -9 -11 -2
6 9 -5 11 -45 7 -29 -3 -82 -6 -118 -6 -36 -1 -68 -6 -72 -12 -5 -8 -8 -8 -8
0 0 7 -42 12 -117 13 -153 4 -163 5 -163 11 0 7 -39 8 -45 2z"/>
<path d="M2984 601 c3 -4 -6 -7 -20 -5 -16 1 -29 -5 -37 -17 -6 -10 -19 -19
-27 -19 -25 0 -70 -98 -70 -150 0 -45 31 -125 44 -113 3 4 6 -1 6 -10 0 -10 7
-17 16 -17 8 0 12 -4 9 -10 -3 -5 3 -10 14 -10 12 0 21 -4 21 -10 0 -5 11 -10
24 -10 13 0 26 -5 28 -12 3 -7 9 -8 18 -3 7 4 29 9 48 11 20 2 38 7 41 11 3 5
18 14 32 21 24 13 62 80 62 109 0 7 4 13 9 13 9 0 5 57 -5 67 -4 3 -7 20 -7
37 0 24 -3 27 -10 16 -8 -12 -10 -10 -10 9 0 36 -58 88 -92 82 -5 0 -8 4 -8 9
0 6 -21 10 -46 10 -25 0 -43 -4 -40 -9z"/>
</g>
</svg>
