<svg width="32" height="32" viewBox="0 0 32 32" fill="none" xmlns="http://www.w3.org/2000/svg">
<path d="M16 28C25.9728 28 32 25.0866 32 18.2835V11.8898C32 7.10236 25.6621 4 16 4C6.32233 4 0 7.10236 0 11.8898V18.2835C0 25.0866 6.02718 28 16 28ZM16 16.7717C8.20194 16.7717 3.04466 14.8031 3.04466 11.8898C3.04466 8.97638 8.20194 7.02362 16 7.02362C23.7981 7.02362 28.9553 8.97638 28.9553 11.8898C28.9553 14.8031 23.7981 16.7717 16 16.7717ZM7.34757 20.1732V18.7559C8.10874 18.9606 8.93204 19.1496 9.80194 19.2913V21.1968C9.80194 21.7953 10.2835 22.2835 10.8738 22.2835C11.4641 22.2835 11.9456 21.7953 11.9456 21.1968V19.5906C12.8466 19.685 13.7942 19.748 14.7728 19.7638V21.5905C14.7728 22.1732 15.2544 22.6614 15.8447 22.6614C16.4349 22.6614 16.9165 22.1732 16.9165 21.5905V19.7795C17.8951 19.7638 18.8272 19.7008 19.7437 19.622V21.1968C19.7437 21.7953 20.2252 22.2835 20.8155 22.2835C21.4058 22.2835 21.8874 21.7953 21.8874 21.1968V19.3543C22.7417 19.2126 23.565 19.0394 24.3262 18.8346V20.1732C24.3262 20.7717 24.8078 21.2598 25.3981 21.2598C25.9883 21.2598 26.4699 20.7717 26.4699 20.1732V18.1417C27.4019 17.7795 28.2408 17.3543 28.9553 16.8819V18.2835C28.9553 23.1024 24.0466 24.9134 16 24.9134C7.93786 24.9134 3.04466 23.1024 3.04466 18.2835V16.8819C3.68155 17.2913 4.39612 17.685 5.20388 18.0157V20.1732C5.20388 20.7717 5.68544 21.2598 6.27573 21.2598C6.86602 21.2598 7.34757 20.7717 7.34757 20.1732Z" fill="white"/>
</svg>
