<svg width="28" height="28" viewBox="0 0 28 28" fill="none" xmlns="http://www.w3.org/2000/svg">
<path d="M21.4189 19.7637L23.1504 12.7412C24.4424 12.7412 25.5322 11.6602 25.5322 10.3154C25.5322 8.98828 24.4424 7.89844 23.1064 7.89844C21.7705 7.89844 20.6895 8.98828 20.6895 10.3154C20.6895 10.5879 20.7334 10.8428 20.8125 11.0801L18.7207 12.3721C18.4482 12.5391 18.2812 12.4951 18.1318 12.2842L15.3984 8.60156C16.0137 8.16211 16.418 7.44141 16.418 6.62402C16.418 5.29688 15.3281 4.20703 14.001 4.20703C12.6562 4.20703 11.5752 5.28809 11.5752 6.62402C11.5752 7.44141 11.9795 8.16211 12.6035 8.60156L9.86133 12.293C9.7207 12.4863 9.5625 12.5303 9.30762 12.3721L7.18945 11.0625C7.25977 10.8252 7.30371 10.5791 7.30371 10.3154C7.30371 8.98828 6.22266 7.89844 4.88672 7.89844C3.54199 7.89844 2.46094 8.98828 2.46094 10.3154C2.46094 11.6426 3.5332 12.7236 4.85156 12.7412L6.57422 19.7637C6.93457 21.2227 7.72559 21.9521 9.2373 21.9521H18.7646C20.2764 21.9521 21.0674 21.2227 21.4189 19.7637ZM14.001 7.50293C13.5176 7.50293 13.1221 7.10742 13.1221 6.62402C13.1221 6.13184 13.5176 5.75391 14.001 5.75391C14.4756 5.75391 14.8711 6.14941 14.8711 6.62402C14.8711 7.10742 14.4844 7.50293 14.001 7.50293ZM8.71875 13.8838C9.42188 14.2969 10.415 14.2529 11.0303 13.4268L14.001 9.42773L16.998 13.4531C17.5957 14.2705 18.5801 14.3145 19.2393 13.9189L21.5244 12.5391L20.4258 17.0303H7.56738L6.46875 12.5127L8.71875 13.8838ZM4.88672 11.1943C4.40332 11.1943 4.00781 10.7988 4.00781 10.3154C4.00781 9.83203 4.40332 9.44531 4.88672 9.44531C5.36133 9.44531 5.75684 9.84082 5.75684 10.3154C5.75684 10.7988 5.37012 11.1943 4.88672 11.1943ZM23.1064 11.1943C22.6143 11.1943 22.2363 10.7988 22.2363 10.3154C22.2363 9.84082 22.6318 9.44531 23.1064 9.44531C23.5898 9.44531 23.9854 9.83203 23.9854 10.3154C23.9854 10.7988 23.5898 11.1943 23.1064 11.1943ZM9.21973 20.335C8.64844 20.335 8.30566 20.0713 8.18262 19.5352L7.96289 18.6562H20.0303L19.8193 19.5352C19.6875 20.0713 19.3535 20.335 18.7734 20.335H9.21973Z" fill="white"/>
</svg>
