<svg width="32" height="32" viewBox="0 0 32 32" fill="none" xmlns="http://www.w3.org/2000/svg">
<path d="M16.9867 28C21.9936 28 25.3315 26.1672 25.3315 23.4413C25.3315 21.0749 23.4482 20.5877 23.4482 19.2073C23.4482 17.3166 30 17.015 30 12.0967C30 7.22475 25.1059 4 17.8325 4C8.37133 4 2 8.94152 2 16.1914C2 23.2557 8.0443 28 16.9867 28ZM16.9867 25.5176C9.40878 25.5176 4.40193 21.7825 4.40193 16.1914C4.40193 10.3567 9.72453 6.47076 17.8325 6.47076C23.7189 6.47076 27.5981 8.74432 27.5981 12.0967C27.5981 16.029 21.0125 15.5998 21.0125 19.1145C21.0125 21.1213 22.907 21.6665 22.907 23.1049C22.907 24.5665 20.5614 25.5176 16.9867 25.5176ZM17.8663 12.2359C18.915 12.2359 19.7495 11.3775 19.7495 10.3103C19.7495 9.23151 18.915 8.37313 17.8663 8.37313C16.8288 8.37313 15.9718 9.23151 15.9718 10.3103C15.9718 11.3775 16.8288 12.2359 17.8663 12.2359ZM12.2392 14.0802C13.5248 14.0802 14.5735 13.0246 14.5735 11.6791C14.5735 10.3567 13.5135 9.30111 12.2392 9.30111C10.9424 9.30111 9.89368 10.3567 9.89368 11.6791C9.89368 13.0246 10.9424 14.0802 12.2392 14.0802ZM22.9408 12.9667C23.7753 12.9667 24.4519 12.2823 24.4519 11.4007C24.4519 10.5307 23.7753 9.8231 22.9408 9.8231C22.0838 9.8231 21.3959 10.5307 21.3959 11.4007C21.3959 12.2707 22.0838 12.9667 22.9408 12.9667ZM8.1909 17.7458C9.21708 17.7458 10.0516 16.8642 10.0516 15.8086C10.0516 14.753 9.22835 13.9062 8.1909 13.9062C7.16472 13.9062 6.33025 14.753 6.33025 15.8086C6.33025 16.8642 7.176 17.7458 8.1909 17.7458ZM16.0169 22.8729C17.7986 22.8729 19.2082 21.4229 19.2082 19.5901C19.2082 17.7922 17.7761 16.3074 16.0169 16.3074C14.2578 16.3074 12.8256 17.7922 12.8256 19.5901C12.8256 21.3997 14.2578 22.8729 16.0169 22.8729ZM16.0169 21.3417C15.0697 21.3417 14.3141 20.5645 14.3141 19.5785C14.3141 18.4998 15.1148 17.8618 15.9831 17.8502C16.8852 17.8386 17.7197 18.465 17.7197 19.5785C17.7197 20.5645 16.9642 21.3417 16.0169 21.3417Z" fill="white"/>
</svg>
